<svg height="256" viewBox="0 0 67.733 67.733" width="256" xmlns="http://www.w3.org/2000/svg"><g transform="translate(0 -229.27)"><path d="m39.622 229.76a33.868 33.865 9.784 0 0 -6.478-.45l-1.329 7.7a26.235 26.232 9.784 0 0 -7.507 1.73l-4.497-6.38a33.868 33.865 9.784 0 0 -10.515 7.5l4.523 6.4a26.235 26.232 9.784 0 0 -3.745 5.9l-7.7549-1.34a33.868 33.865 9.784 0 0 -1.82567 6.55 33.868 33.865 9.784 0 0 -.49343 6.16l7.7167 1.33a26.235 26.232 9.784 0 0 1.5591 7.32l-6.4156 4.53a33.868 33.865 9.784 0 0 7.3288 10.63l6.392-4.51a26.235 26.232 9.784 0 0 6.603 4.23l-1.33 7.72a33.868 33.865 9.784 0 0 6.258 1.73 33.868 33.865 9.784 0 0 6.466.45l1.325-7.68a26.235 26.232 9.784 0 0 7.507-1.73l4.496 6.37a33.868 33.865 9.784 0 0 10.517-7.49l-4.517-6.4a26.235 26.232 9.784 0 0 3.934-6.31l7.711 1.33a33.868 33.865 9.784 0 0 1.69-6.16 33.868 33.865 9.784 0 0 .453-6.57l-7.699-1.33a26.235 26.232 9.784 0 0 -1.645-7.2l6.393-4.5a33.868 33.865 9.784 0 0 -7.42-10.57l-6.407 4.53a26.235 26.232 9.784 0 0 -6.376-4.03l1.334-7.74a33.868 33.865 9.784 0 0 -6.252-1.72z" fill="#1a1a1a" stroke-linecap="round" stroke-width="2.66877"/><g fill="#fff" transform="matrix(.30557 0 0 .30555 -30.7 57.279)"><path d="m153.01 683.37h-10.08v-2.07h3.24v-26.25h-3.46v-2.07h7.05v19.79l8.75-8.07h-2.98v-2.09h9.39v2.09h-3.55l-6.18 5.7 7.89 10.9h2.99v2.07h-10.23v-2.07h2.97l-6.21-8.53-2.84 2.63v5.9h3.25z"/><path d="m177.81 682q2.89 0 4.36-2.28 1.48-2.29 1.48-6.74 0-4.45-1.48-6.72-1.47-2.28-4.36-2.28-2.89 0-4.37 2.28-1.47 2.27-1.47 6.72 0 4.45 1.49 6.74 1.48 2.28 4.35 2.28zm0 1.94q-4.53 0-7.28-2.99-2.76-3.01-2.76-7.97 0-4.96 2.74-7.95 2.75-2.99 7.3-2.99 4.55 0 7.29 2.99 2.75 2.99 2.75 7.95 0 4.96-2.75 7.97-2.74 2.99-7.29 2.99z"/><path d="m210.84 664.7v18.22q0 4.47-2.46 6.9-2.46 2.44-7.01 2.44-2.06 0-3.93-.37-1.88-.37-3.59-1.12v-4.35h1.87q.35 2.03 1.66 2.97 1.31.93 3.75.93 3.16 0 4.63-1.79 1.48-1.78 1.48-5.61v-2.79q-1.05 1.95-2.69 2.89-1.62.92-4.02.92-3.83 0-6.27-3.03-2.43-3.05-2.43-7.93 0-4.88 2.43-7.91 2.42-3.03 6.27-3.03 2.4 0 4.02.94 1.64.92 2.69 2.87v-3.24h7.04v2.09zm-3.6 7.26q0-3.73-1.44-5.7-1.43-1.97-4.16-1.97-2.77 0-4.2 2.19-1.41 2.18-1.41 6.5 0 4.3 1.41 6.5 1.43 2.21 4.2 2.21 2.73 0 4.16-1.95 1.44-1.97 1.44-5.72z"/><path d="m236.46 664.7v18.22q0 4.47-2.46 6.9-2.46 2.44-7.01 2.44-2.05 0-3.93-.37-1.87-.37-3.59-1.12v-4.35h1.88q.35 2.03 1.66 2.97 1.3.93 3.75.93 3.16 0 4.62-1.79 1.49-1.78 1.49-5.61v-2.79q-1.06 1.95-2.7 2.89-1.62.92-4.02.92-3.83 0-6.27-3.03-2.42-3.05-2.42-7.93 0-4.88 2.42-7.91 2.42-3.03 6.27-3.03 2.4 0 4.02.94 1.64.92 2.7 2.87v-3.24h7.03v2.09zm-3.59 7.26q0-3.73-1.45-5.7-1.42-1.97-4.16-1.97-2.77 0-4.2 2.19-1.4 2.18-1.4 6.5 0 4.3 1.4 6.5 1.43 2.21 4.2 2.21 2.74 0 4.16-1.95 1.45-1.97 1.45-5.72z"/><path d="m244.98 656.16q0-.89.64-1.56.67-.66 1.59-.66.89 0 1.54.66.66.67.66 1.56 0 .92-.64 1.57-.65.64-1.56.64-.92 0-1.59-.64-.64-.65-.64-1.57zm4.59 25.14h3.4v2.07h-10.43v-2.07h3.43v-16.6h-3.43v-2.09h7.03z"/><path d="m275.58 673.37h-15.48v.16q0 4.2 1.58 6.34 1.58 2.13 4.67 2.13 2.36 0 3.86-1.23 1.53-1.25 2.13-3.69h2.89q-.86 3.42-3.18 5.14-2.31 1.72-6.08 1.72-4.55 0-7.32-2.99-2.75-3.01-2.75-7.97 0-4.92 2.71-7.93 2.72-3.01 7.13-3.01 4.71 0 7.23 2.91 2.52 2.89 2.61 8.42zm-4.23-2.07q-.12-3.63-1.55-5.47-1.4-1.85-4.06-1.85-2.48 0-3.91 1.85-1.42 1.86-1.73 5.47z"/></g></g></svg>